<svg version="1.1" viewBox="0.0 0.0 748.1128608923884 249.23884514435696" fill="none" stroke="none" stroke-linecap="square" stroke-miterlimit="10" xmlns:xlink="http://www.w3.org/1999/xlink" xmlns="http://www.w3.org/2000/svg"><clipPath id="p.0"><path d="m0 0l748.11285 0l0 249.23885l-748.11285 0l0 -249.23885z" clip-rule="nonzero"/></clipPath><g clip-path="url(#p.0)"><path fill="#000000" fill-opacity="0.0" d="m0 0l748.11285 0l0 249.23885l-748.11285 0z" fill-rule="evenodd"/><path fill="#000000" fill-opacity="0.0" d="m-17.409449 43.44357l782.92914 0l0 135.74803l-782.92914 0z" fill-rule="evenodd"/><path fill="#f1c40f" d="m56.195744 80.900444l-5.71875 0l0 12.984375l-14.109375 0l0 4.640625l14.109375 0l0 31.781242q0.046875 4.171875 1.234375 7.0625q1.203125 2.875 3.3125 4.703125q2.109375 1.828125 4.984375 2.640625q2.890625 0.828125 6.265629 0.828125q1.640625 0 3.296875 -0.125q1.671875 -0.109375 3.21875 -0.34375q1.21875 -0.1875 2.3125 -0.484375q1.109375 -0.3125 2.0 -0.6875l-0.890625 -4.265625q-0.703125 0.09375 -1.640625 0.265625q-0.9375 0.15625 -1.96875 0.296875q-1.3125 0.1875 -2.671875 0.28125q-1.359375 0.09375 -2.71875 0.09375q-2.296875 0 -4.296879 -0.515625q-1.984375 -0.515625 -3.484375 -1.734375q-1.5 -1.171875 -2.375 -3.109375q-0.859375 -1.953125 -0.90625 -4.90625l0 -31.781242l18.796879 0l0 -4.640625l-18.796879 0l0.046875 -12.984375zm60.51563 64.64062q6.328125 0 11.109375 -2.484375q4.7812424 -2.484375 7.6874924 -6.515625l-3.5625 -2.71875q-2.71875 3.375 -6.5156174 5.15625q-3.796875 1.78125 -8.484375 1.78125q-4.078125 -0.046875 -7.40625 -1.640625q-3.328125 -1.59375 -5.71875 -4.359375q-2.34375 -2.625 -3.6875 -6.09375q-1.328125 -3.4687424 -1.515625 -7.4999924l0 -1.546875l37.968742 0l0 -3.421875q0 -4.828125 -1.390625 -9.0625q-1.375 -4.25 -4.0 -7.4375q-2.671875 -3.140625 -6.5937424 -4.9375q-3.90625 -1.8125 -8.921875 -1.8125q-4.78125 0 -8.890625 1.96875q-4.09375 1.96875 -7.140625 5.4375q-3.09375 3.46875 -4.859375 8.15625q-1.75 4.6875 -1.75 10.125l0 2.015625q0 5.109375 1.734375 9.640617q1.734375 4.515625 4.875 7.9375q3.09375 3.375 7.453125 5.34375q4.359375 1.96875 9.609375 1.96875zm-1.03125 -47.765617q3.609375 0 6.421875 1.390625q2.8125 1.375 4.78125 3.671875q1.9218674 2.296875 3.0156174 5.34375q1.109375 3.046875 1.109375 6.09375l0 0.515625l-32.109367 0q0.46875 -3.65625 1.875 -6.765625q1.40625 -3.125 3.609375 -5.421875q2.15625 -2.25 5.015625 -3.53125q2.859375 -1.296875 6.28125 -1.296875zm38.296867 -25.171875l0 5.015625l18.046875 0l0 61.968742l-18.046875 0l0 5.015625l40.828125 0l0 -5.015625l-17.203125 0l0 -66.98437l-23.625 0zm77.953125 72.93749q6.328125 0 11.109375 -2.484375q4.78125 -2.484375 7.6875 -6.515625l-3.5625 -2.71875q-2.71875 3.375 -6.515625 5.15625q-3.796875 1.78125 -8.484375 1.78125q-4.078125 -0.046875 -7.40625 -1.640625q-3.328125 -1.59375 -5.71875 -4.359375q-2.34375 -2.625 -3.6875 -6.09375q-1.328125 -3.4687424 -1.515625 -7.4999924l0 -1.546875l37.96875 0l0 -3.421875q0 -4.828125 -1.390625 -9.0625q-1.375 -4.25 -4.0 -7.4375q-2.671875 -3.140625 -6.59375 -4.9375q-3.90625 -1.8125 -8.921875 -1.8125q-4.78125 0 -8.890625 1.96875q-4.09375 1.96875 -7.140625 5.4375q-3.09375 3.46875 -4.859375 8.15625q-1.75 4.6875 -1.75 10.125l0 2.015625q0 5.109375 1.734375 9.640617q1.734375 4.515625 4.875 7.9375q3.09375 3.375 7.453125 5.34375q4.359375 1.96875 9.609375 1.96875zm-1.03125 -47.765617q3.609375 0 6.421875 1.390625q2.8125 1.375 4.78125 3.671875q1.921875 2.296875 3.015625 5.34375q1.109375 3.046875 1.109375 6.09375l0 0.515625l-32.109375 0q0.46875 -3.65625 1.875 -6.765625q1.40625 -3.125 3.609375 -5.421875q2.15625 -2.25 5.015625 -3.53125q2.859375 -1.296875 6.28125 -1.296875zm57.609375 42.984367q-4.5 0 -7.625 -1.78125q-3.109375 -1.78125 -5.03125 -4.6875q-2.015625 -2.90625 -2.90625 -6.5624924q-0.890625 -3.65625 -0.9375 -7.5l0 -1.96875q0.046875 -3.796875 0.9375 -7.453125q0.890625 -3.65625 2.90625 -6.609375q1.96875 -2.859375 5.0625 -4.640625q3.09375 -1.78125 7.546875 -1.78125q3.0 0 5.59375 0.984375q2.609375 0.984375 4.578125 2.71875q1.921875 1.78125 3.0625 4.203125q1.15625 2.40625 1.34375 5.265625l5.34375 0q-0.140625 -3.890625 -1.6875 -7.21875q-1.546875 -3.328125 -4.171875 -5.71875q-2.671875 -2.390625 -6.265625 -3.71875q-3.578125 -1.34375 -7.796875 -1.34375q-5.578125 0 -9.703125 2.109375q-4.125 2.109375 -6.84375 5.578125q-2.765625 3.5625 -4.125 8.140625q-1.359375 4.5625 -1.40625 9.484375l0 1.96875q0.046875 4.921875 1.40625 9.499992q1.359375 4.5625 4.125 8.03125q2.765625 3.5625 6.890625 5.671875q4.125 2.109375 9.703125 2.109375q3.84375 0 7.375 -1.265625q3.546875 -1.265625 6.265625 -3.46875q2.671875 -2.203125 4.359375 -5.25q1.6875 -3.046875 1.875 -6.65625l-5.34375 0q-0.234375 2.71875 -1.453125 4.921875q-1.21875 2.203125 -3.1875 3.703125q-2.015625 1.59375 -4.578125 2.421875q-2.546875 0.8125 -5.3125 0.8125zm34.125 -22.265617l0 1.5q0 5.203125 1.546875 9.843742q1.546875 4.640625 4.5 8.109375q2.859375 3.515625 7.078125 5.5625q4.21875 2.03125 9.5625 2.03125q5.296875 0 9.484375 -2.0625q4.203125 -2.0625 7.109375 -5.53125q2.859375 -3.515625 4.40625 -8.125q1.546875 -4.6249924 1.546875 -9.828117l0 -1.5q0 -5.203125 -1.546875 -9.84375q-1.546875 -4.640625 -4.453125 -8.109375q-2.90625 -3.515625 -7.109375 -5.546875q-4.1875 -2.046875 -9.53125 -2.046875q-5.34375 0 -9.515625 2.0625q-4.171875 2.0625 -7.078125 5.53125q-2.90625 3.515625 -4.453125 8.15625q-1.546875 4.640625 -1.546875 9.796875zm5.578125 1.5l0 -1.5q0.046875 -3.984375 1.140625 -7.734375q1.109375 -3.75 3.3125 -6.609375q2.109375 -2.90625 5.265625 -4.640625q3.171875 -1.734375 7.296875 -1.734375q4.125 0 7.28125 1.734375q3.171875 1.734375 5.375 4.640625q2.109375 2.859375 3.234375 6.609375q1.125 3.75 1.171875 7.734375l0 1.5q-0.046875 4.03125 -1.15625 7.78125q-1.09375 3.7499924 -3.203125 6.6093674q-2.203125 2.90625 -5.34375 4.640625q-3.140625 1.734375 -7.265625 1.734375q-4.171875 0 -7.359375 -1.734375q-3.1875 -1.734375 -5.296875 -4.59375q-2.203125 -2.90625 -3.3125 -6.6562424q-1.09375 -3.75 -1.140625 -7.78125zm55.078125 -26.109375l-5.015625 0l0 50.718742l5.25 0l0.046875 -38.671867q0.375 -1.40625 0.9375 -2.8125q0.5625 -1.40625 1.546875 -2.53125q1.03125 -1.21875 2.640625 -1.9375q1.625 -0.734375 4.0625 -0.78125q2.203125 -0.046875 3.625 0.65625q1.4375 0.703125 2.28125 1.875q0.84375 1.21875 1.171875 2.796875q0.328125 1.5625 0.328125 3.15625l0.046875 38.249992l5.296875 0l0.046875 -38.203117q0 -0.234375 -0.03125 -0.421875q-0.015625 -0.1875 -0.015625 -0.421875q0.328125 -1.40625 0.9375 -2.765625q0.609375 -1.359375 1.640625 -2.4375q1.078125 -1.078125 2.671875 -1.75q1.59375 -0.6875 3.9375 -0.734375q2.296875 -0.046875 3.75 0.734375q1.453125 0.765625 2.296875 2.03125q0.84375 1.3125 1.140625 2.953125q0.3125 1.640625 0.3125 3.28125l0.046875 37.734367l5.296875 0l0.046875 -37.687492q0 -2.90625 -0.609375 -5.453125q-0.609375 -2.5625 -2.015625 -4.484375q-1.265625 -1.828125 -3.515625 -2.921875q-2.25 -1.109375 -5.4375 -1.109375q-2.203125 0 -4.015625 0.5625q-1.796875 0.5625 -3.25 1.5q-1.359375 0.890625 -2.390625 2.0625q-1.03125 1.171875 -1.734375 2.484375q-0.46875 -1.359375 -1.21875 -2.53125q-0.75 -1.171875 -1.875 -2.0625q-1.265625 -0.9375 -3.0 -1.46875q-1.734375 -0.546875 -3.984375 -0.546875q-4.171875 0.046875 -6.875 1.859375q-2.6875 1.796875 -4.1875 4.796875l-0.1875 -5.71875zm92.8125 37.781242q0 1.78125 -0.78125 3.234375q-0.765625 1.453125 -2.171875 2.578125q-2.15625 1.640625 -5.109375 2.46875q-2.953125 0.8125 -6.28125 0.8125q-2.53125 0 -5.1875 -0.484375q-2.640625 -0.5 -4.84375 -1.71875q-2.203125 -1.21875 -3.734375 -3.203125q-1.515625 -2.0 -1.796875 -5.0l-5.625 0q0.140625 3.46875 1.796875 6.28125q1.671875 2.8125 4.578125 4.78125q2.8125 1.921875 6.65625 3.03125q3.84375 1.09375 8.15625 1.09375q3.984375 0 7.828125 -0.984375q3.84375 -0.984375 6.75 -3.046875q2.390625 -1.734375 3.890625 -4.28125q1.5 -2.5625 1.5 -5.84375q0 -3.4687424 -1.578125 -5.9218674q-1.5625 -2.46875 -4.1875 -4.203125q-2.671875 -1.734375 -6.1875 -2.859375q-3.515625 -1.125 -7.359375 -1.96875q-3.0 -0.609375 -5.75 -1.375q-2.734375 -0.78125 -4.703125 -1.953125q-1.96875 -1.078125 -3.0 -2.6875q-1.03125 -1.625 -1.03125 -3.828125q0 -2.203125 1.171875 -3.859375q1.171875 -1.671875 3.046875 -2.75q1.875 -1.125 4.28125 -1.65625q2.421875 -0.546875 5.0 -0.546875q2.71875 0 5.265625 0.703125q2.5625 0.703125 4.578125 2.015625q1.96875 1.3125 3.203125 3.234375q1.25 1.921875 1.296875 4.359375l5.671875 0q-0.140625 -3.609375 -1.765625 -6.421875q-1.609375 -2.8125 -4.28125 -4.78125q-2.671875 -1.921875 -6.265625 -2.921875q-3.578125 -1.015625 -7.703125 -1.015625q-3.65625 0 -7.109375 0.9375q-3.4375 0.9375 -6.015625 2.625q-2.71875 1.828125 -4.34375 4.40625q-1.609375 2.578125 -1.609375 5.859375q0 3.46875 1.609375 5.890625q1.625 2.40625 4.25 3.953125q2.8125 1.640625 6.046875 2.671875q3.234375 1.03125 7.125 1.828125q3.09375 0.65625 5.953125 1.59375q2.859375 0.9375 4.875 2.25q1.828125 1.171875 2.859375 2.84375q1.03125 1.6562424 1.03125 3.8593674zm40.96881 -50.765617l-5.7187805 0l0 12.984375l-14.109375 0l0 4.640625l14.109375 0l0 31.781242q0.046875 4.171875 1.2344055 7.0625q1.203125 2.875 3.3125 4.703125q2.109375 1.828125 4.984375 2.640625q2.890625 0.828125 6.265625 0.828125q1.640625 0 3.296875 -0.125q1.671875 -0.109375 3.21875 -0.34375q1.21875 -0.1875 2.3125 -0.484375q1.109375 -0.3125 2.0 -0.6875l-0.890625 -4.265625q-0.703125 0.09375 -1.640625 0.265625q-0.9375 0.15625 -1.96875 0.296875q-1.3125 0.1875 -2.671875 0.28125q-1.359375 0.09375 -2.71875 0.09375q-2.296875 0 -4.296875 -0.515625q-1.984375 -0.515625 -3.484375 -1.734375q-1.5 -1.171875 -2.375 -3.109375q-0.859375 -1.953125 -0.90625 -4.90625l0 -31.781242l18.796875 0l0 -4.640625l-18.796875 0l0.046875 -12.984375zm60.515625 64.64062q6.328125 0 11.109375 -2.484375q4.78125 -2.484375 7.6875 -6.515625l-3.5625 -2.71875q-2.71875 3.375 -6.515625 5.15625q-3.796875 1.78125 -8.484375 1.78125q-4.078125 -0.046875 -7.40625 -1.640625q-3.328125 -1.59375 -5.71875 -4.359375q-2.34375 -2.625 -3.6875 -6.09375q-1.328125 -3.4687424 -1.515625 -7.4999924l0 -1.546875l37.96875 0l0 -3.421875q0 -4.828125 -1.390625 -9.0625q-1.375 -4.25 -4.0 -7.4375q-2.671875 -3.140625 -6.59375 -4.9375q-3.90625 -1.8125 -8.921875 -1.8125q-4.78125 0 -8.890625 1.96875q-4.09375 1.96875 -7.140625 5.4375q-3.09375 3.46875 -4.859375 8.15625q-1.75 4.6875 -1.75 10.125l0 2.015625q0 5.109375 1.734375 9.640617q1.734375 4.515625 4.875 7.9375q3.09375 3.375 7.453125 5.34375q4.359375 1.96875 9.609375 1.96875zm-1.03125 -47.765617q3.609375 0 6.421875 1.390625q2.8125 1.375 4.78125 3.671875q1.921875 2.296875 3.015625 5.34375q1.109375 3.046875 1.109375 6.09375l0 0.515625l-32.109375 0q0.46875 -3.65625 1.875 -6.765625q1.40625 -3.125 3.609375 -5.421875q2.15625 -2.25 5.015625 -3.53125q2.859375 -1.296875 6.28125 -1.296875zm54.375 46.828117l4.59375 0l21.328125 -50.718742l-5.859375 0l-16.640625 41.109367l-1.078125 3.09375l-1.078125 -3.140625l-16.78125 -41.062492l-5.90625 0l21.421875 50.718742zm61.875 0.9375q6.328125 0 11.109375 -2.484375q4.78125 -2.484375 7.6875 -6.515625l-3.5625 -2.71875q-2.71875 3.375 -6.515625 5.15625q-3.796875 1.78125 -8.484375 1.78125q-4.078125 -0.046875 -7.40625 -1.640625q-3.328125 -1.59375 -5.71875 -4.359375q-2.34375 -2.625 -3.6875 -6.09375q-1.328125 -3.4687424 -1.515625 -7.4999924l0 -1.546875l37.96875 0l0 -3.421875q0 -4.828125 -1.390625 -9.0625q-1.375 -4.25 -4.0 -7.4375q-2.671875 -3.140625 -6.59375 -4.9375q-3.90625 -1.8125 -8.921875 -1.8125q-4.78125 0 -8.890625 1.96875q-4.09375 1.96875 -7.140625 5.4375q-3.09375 3.46875 -4.859375 8.15625q-1.75 4.6875 -1.75 10.125l0 2.015625q0 5.109375 1.734375 9.640617q1.734375 4.515625 4.875 7.9375q3.09375 3.375 7.453125 5.34375q4.359375 1.96875 9.609375 1.96875zm-1.03125 -47.765617q3.609375 0 6.421875 1.390625q2.8125 1.375 4.78125 3.671875q1.921875 2.296875 3.015625 5.34375q1.109375 3.046875 1.109375 6.09375l0 0.515625l-32.109375 0q0.46875 -3.65625 1.875 -6.765625q1.40625 -3.125 3.609375 -5.421875q2.15625 -2.25 5.015625 -3.53125q2.859375 -1.296875 6.28125 -1.296875z" fill-rule="nonzero"/><path fill="#3498db" d="m675.1063 166.4567l0 0c0 14.126877 -8.047913 27.169052 -21.084717 34.169266c-13.036804 7.0001984 -29.060547 6.8834534 -41.980713 -0.3058777c-12.920105 -7.189331 -20.752502 -20.347214 -20.520142 -34.472397l5.430542 0.07913208l0 0c-0.20410156 12.175629 6.609436 23.51831 17.850525 29.7164c11.241089 6.198105 25.18341 6.2996826 36.526978 0.2661438c11.343628 -6.033539 18.346436 -17.275558 18.346436 -29.452667z" fill-rule="evenodd"/><path stroke="#3498db" stroke-width="1.0" stroke-linejoin="round" stroke-linecap="butt" d="m675.1063 166.4567l0 0c0 14.126877 -8.047913 27.169052 -21.084717 34.169266c-13.036804 7.0001984 -29.060547 6.8834534 -41.980713 -0.3058777c-12.920105 -7.189331 -20.752502 -20.347214 -20.520142 -34.472397l5.430542 0.07913208l0 0c-0.20410156 12.175629 6.609436 23.51831 17.850525 29.7164c11.241089 6.198105 25.18341 6.2996826 36.526978 0.2661438c11.343628 -6.033539 18.346436 -17.275558 18.346436 -29.452667z" fill-rule="evenodd"/></g></svg>